<svg width="20" height="20" viewBox="0 0 20 20" fill="none" xmlns="http://www.w3.org/2000/svg">
<path d="M2.44706 6.1945C2.3675 6.11932 2.27391 6.06054 2.17164 6.02153C2.06936 5.98252 1.9604 5.96403 1.85099 5.96712C1.74157 5.97022 1.63383 5.99484 1.53393 6.03957C1.43402 6.0843 1.3439 6.14827 1.26872 6.22783C1.19354 6.30739 1.13477 6.40098 1.09575 6.50325C1.05674 6.60553 1.03825 6.71448 1.04135 6.8239C1.04444 6.93332 1.06906 7.04106 1.11379 7.14096C1.15853 7.24087 1.2225 7.33098 1.30206 7.40617L8.80206 14.4895C8.95678 14.6358 9.16163 14.7173 9.37456 14.7173C9.58748 14.7173 9.79233 14.6358 9.94706 14.4895L17.4479 7.40617C17.5292 7.33148 17.5948 7.24138 17.641 7.14111C17.6872 7.04084 17.713 6.93239 17.7169 6.82206C17.7209 6.71173 17.7028 6.60172 17.6639 6.49843C17.6249 6.39513 17.5658 6.3006 17.49 6.22034C17.4142 6.14007 17.3232 6.07566 17.2223 6.03086C17.1214 5.98605 17.0126 5.96174 16.9023 5.95934C16.7919 5.95693 16.6822 5.97648 16.5794 6.01685C16.4766 6.05722 16.3829 6.11761 16.3037 6.1945L9.37456 12.7378L2.44706 6.1945Z" fill="currentColor"/>
</svg>
