<svg width="35" height="35" viewBox="0 0 35 35" fill="none" xmlns="http://www.w3.org/2000/svg">
<g clip-path="url(#clip0_3509_12181)">
<path fill-rule="evenodd" clip-rule="evenodd" d="M17.5 19.5621L25.7498 27.8119C26.0248 28.0775 26.3932 28.2245 26.7756 28.2212C27.158 28.2179 27.5237 28.0645 27.7941 27.7941C28.0645 27.5237 28.2179 27.158 28.2212 26.7756C28.2245 26.3932 28.0775 26.0248 27.8119 25.7498L19.5621 17.5L27.8119 9.2502C28.0775 8.97516 28.2245 8.60678 28.2212 8.22441C28.2179 7.84204 28.0645 7.47627 27.7941 7.20588C27.5237 6.9355 27.158 6.78213 26.7756 6.7788C26.3932 6.77548 26.0248 6.92247 25.7498 7.18812L17.5 15.4379L9.25021 7.18812C8.97393 6.92904 8.60769 6.78761 8.22899 6.79376C7.85028 6.79991 7.48883 6.95315 7.2211 7.22107C6.95338 7.48898 6.80039 7.85055 6.79451 8.22925C6.78863 8.60796 6.93031 8.9741 7.18959 9.2502L15.4379 17.5L7.18813 25.7498C7.04885 25.8843 6.93775 26.0452 6.86132 26.2232C6.78489 26.4011 6.74466 26.5924 6.74297 26.7861C6.74129 26.9797 6.77819 27.1717 6.85152 27.351C6.92484 27.5302 7.03313 27.693 7.17006 27.8299C7.30698 27.9669 7.46981 28.0752 7.64903 28.1485C7.82826 28.2218 8.02029 28.2587 8.21392 28.257C8.40756 28.2553 8.59892 28.2151 8.77685 28.1387C8.95477 28.0623 9.11569 27.9512 9.25021 27.8119L17.5 19.5621Z" fill="#2A2A26"/>
</g>
<defs>
<clipPath id="clip0_3509_12181">
<rect width="35" height="35" fill="white"/>
</clipPath>
</defs>
</svg>
