<svg width="137" height="19" viewBox="0 0 137 19" fill="none" xmlns="http://www.w3.org/2000/svg">
<path d="M131.555 18.3977H127.822V3.43384H122.669V0.313232H136.72V3.43384H131.555V18.3977Z" fill="white"/>
<path d="M109.038 18.3977H105.466V0.313232H108.581L116.91 12.0938H117.009V0.313232H120.581V18.3977H117.491L109.149 6.55444H109.038V18.3977Z" fill="white"/>
<path d="M102.772 15.2646V18.3977H90.9575V0.313232H102.772V3.43384H94.6897V7.79517H102.315V10.7027H94.6897V15.2646H102.772Z" fill="white"/>
<path d="M88.7452 15.2646V18.3977H77.2148V0.313232H80.9471V15.2646H88.7452Z" fill="white"/>
<path d="M75.003 15.2646V18.3977H63.4727V0.313232H67.2049V15.2646H75.003Z" fill="white"/>
<path d="M60.7785 15.2646V18.3977H48.9639V0.313232H60.7785V3.43384H52.6961V7.79517H60.3212V10.7027H52.6961V15.2646H60.7785Z" fill="white"/>
<path d="M38.805 18.7111C33.6145 18.7111 30.3643 15.1895 30.3643 9.34928C30.3643 3.52165 33.6392 0 38.805 0C43.0934 0 46.356 2.75716 46.6402 6.80518H43.0069C42.6608 4.58691 40.9801 3.13314 38.805 3.13314C35.9873 3.13314 34.1706 5.52685 34.1706 9.33675C34.1706 13.1968 35.9626 15.578 38.8174 15.578C41.0295 15.578 42.6237 14.262 43.0192 12.119H46.6526C46.2324 16.1545 43.1799 18.7111 38.805 18.7111Z" fill="white"/>
<path d="M13.5571 18.3977L19.2173 9.33667V9.23641L13.5942 0.313232H17.9814L21.7631 6.83016H21.8619L25.6807 0.313232H29.8454L24.0123 9.31161V9.39933L29.7713 18.3977H25.52L21.6148 12.0688H21.5159L17.586 18.3977H13.5571Z" fill="white"/>
<path d="M11.8146 15.2646V18.3977H0V0.313232H11.8146V3.43384H3.73222V7.79517H11.3573V10.7027H3.73222V15.2646H11.8146Z" fill="white"/>
</svg>
