<svg width="40" height="40" viewBox="0 0 40 40" fill="none" xmlns="http://www.w3.org/2000/svg">
<path fill-rule="evenodd" clip-rule="evenodd" d="M9.31016 7.64335C8.3335 8.62002 8.3335 10.19 8.3335 13.3334V28.3334C8.3335 31.4767 8.3335 33.0467 9.31016 34.0234C10.2868 35 11.8568 35 15.0002 35H25.0002C28.1435 35 29.7135 35 30.6902 34.0234C31.6668 33.0467 31.6668 31.4767 31.6668 28.3334V13.3334C31.6668 10.19 31.6668 8.62002 30.6902 7.64335C29.7135 6.66669 28.1435 6.66669 25.0002 6.66669H15.0002C11.8568 6.66669 10.2868 6.66669 9.31016 7.64335ZM15.0002 13.3334C14.5581 13.3334 14.1342 13.5089 13.8217 13.8215C13.5091 14.1341 13.3335 14.558 13.3335 15C13.3335 15.442 13.5091 15.866 13.8217 16.1785C14.1342 16.4911 14.5581 16.6667 15.0002 16.6667H25.0002C25.4422 16.6667 25.8661 16.4911 26.1787 16.1785C26.4912 15.866 26.6668 15.442 26.6668 15C26.6668 14.558 26.4912 14.1341 26.1787 13.8215C25.8661 13.5089 25.4422 13.3334 25.0002 13.3334H15.0002ZM15.0002 20C14.5581 20 14.1342 20.1756 13.8217 20.4882C13.5091 20.8007 13.3335 21.2247 13.3335 21.6667C13.3335 22.1087 13.5091 22.5326 13.8217 22.8452C14.1342 23.1578 14.5581 23.3334 15.0002 23.3334H25.0002C25.4422 23.3334 25.8661 23.1578 26.1787 22.8452C26.4912 22.5326 26.6668 22.1087 26.6668 21.6667C26.6668 21.2247 26.4912 20.8007 26.1787 20.4882C25.8661 20.1756 25.4422 20 25.0002 20H15.0002ZM15.0002 26.6667C14.5581 26.6667 14.1342 26.8423 13.8217 27.1548C13.5091 27.4674 13.3335 27.8913 13.3335 28.3334C13.3335 28.7754 13.5091 29.1993 13.8217 29.5119C14.1342 29.8244 14.5581 30 15.0002 30H21.6668C22.1089 30 22.5328 29.8244 22.8453 29.5119C23.1579 29.1993 23.3335 28.7754 23.3335 28.3334C23.3335 27.8913 23.1579 27.4674 22.8453 27.1548C22.5328 26.8423 22.1089 26.6667 21.6668 26.6667H15.0002Z" fill="white"/>
</svg>
