<svg width="40" height="40" viewBox="0 0 40 40" fill="none" xmlns="http://www.w3.org/2000/svg">
<path d="M21.3871 3C21.9016 3 22.3619 3.32025 22.5351 3.79974L23.7706 7.22445C24.2134 7.3347 24.5931 7.44495 24.9151 7.56045C25.2669 7.68645 25.7201 7.87719 26.2801 8.13794L29.1571 6.61546C29.3919 6.49105 29.6607 6.44614 29.9232 6.48747C30.1858 6.52881 30.4278 6.65415 30.613 6.84471L33.1435 9.46092C33.4795 9.80917 33.574 10.3184 33.385 10.7629L32.0358 13.9251C32.2598 14.3364 32.4383 14.6881 32.5748 14.9821C32.7218 15.3024 32.9038 15.7433 33.1208 16.3121L36.2655 17.6596C36.738 17.8608 37.0302 18.3333 36.9987 18.8391L36.7677 22.4703C36.7519 22.7062 36.6672 22.9322 36.5241 23.1205C36.381 23.3087 36.1858 23.4507 35.9627 23.529L32.9843 24.5877C32.8985 24.999 32.8093 25.3507 32.7148 25.6482C32.5623 26.1077 32.3883 26.5597 32.1933 27.0027L33.6895 30.3102C33.7951 30.5426 33.8235 30.8027 33.7706 31.0524C33.7177 31.3021 33.5863 31.5283 33.3955 31.6979L30.55 34.2389C30.3626 34.4055 30.1288 34.5109 29.8798 34.5409C29.6309 34.5709 29.3787 34.5242 29.1571 34.4069L26.2241 32.8529C25.7652 33.0959 25.2918 33.3103 24.8066 33.4951L23.5256 33.9746L22.3881 37.1246C22.3039 37.3553 22.1518 37.5551 21.9519 37.6978C21.752 37.8405 21.5137 37.9195 21.2682 37.9243L17.9432 37.9996C17.6911 38.0062 17.4432 37.9345 17.2336 37.7944C17.0239 37.6544 16.8628 37.4527 16.7725 37.2173L15.432 33.6701C14.9746 33.5138 14.5218 33.3446 14.074 33.1626C13.7077 33.0041 13.347 32.8331 12.9925 32.6499L9.66754 34.0709C9.44846 34.1643 9.20693 34.1921 8.97235 34.1508C8.73777 34.1095 8.52027 34.0008 8.34631 33.8381L5.88584 31.5299C5.70265 31.3588 5.5779 31.1344 5.52922 30.8885C5.48055 30.6426 5.51041 30.3877 5.61459 30.1597L7.04433 27.0447C6.85418 26.6758 6.67789 26.2998 6.51583 25.9177C6.32666 25.45 6.15158 24.9767 5.99084 24.4985L2.85838 23.5448C2.60376 23.4678 2.38167 23.3089 2.22662 23.0928C2.07156 22.8767 1.99221 22.6154 2.00089 22.3495L2.12339 18.9878C2.13211 18.7685 2.20062 18.5557 2.32153 18.3725C2.44244 18.1893 2.61114 18.0426 2.80938 17.9483L6.09584 16.3698C6.24809 15.8116 6.38108 15.3776 6.49833 15.0609C6.66343 14.6378 6.84676 14.2221 7.04783 13.8149L5.62334 10.8049C5.51524 10.5763 5.48241 10.3194 5.52958 10.0709C5.57675 9.82253 5.70148 9.59547 5.88584 9.42243L8.34281 7.10195C8.51505 6.93951 8.73055 6.83029 8.9634 6.78745C9.19625 6.7446 9.43652 6.76996 9.65529 6.86046L12.9768 8.23244C13.3442 7.98744 13.6767 7.7897 13.9777 7.63045C14.3365 7.4397 14.816 7.2402 15.4197 7.02495L16.5747 3.80324C16.6601 3.56747 16.8162 3.36379 17.0216 3.22003C17.2271 3.07627 17.4719 2.99943 17.7227 3H21.3871ZM19.5427 15.2831C16.6255 15.2831 14.2612 17.6193 14.2612 20.5033C14.2612 23.3873 16.6255 25.7252 19.5427 25.7252C22.4581 25.7252 24.8224 23.3873 24.8224 20.5033C24.8224 17.6193 22.4599 15.2831 19.5427 15.2831Z" fill="white"/>
</svg>
