<svg width="35" height="35" viewBox="0 0 35 35" fill="none" xmlns="http://www.w3.org/2000/svg">
<g>
<path d="M27.9091 8H7.90909C7.66799 8 7.43675 8.09578 7.26627 8.26627C7.09578 8.43675 7 8.66799 7 8.90909V26.1818C7 26.664 7.19156 27.1265 7.53253 27.4675C7.87351 27.8084 8.33597 28 8.81818 28H13.3636C13.8458 28 14.3083 27.8084 14.6493 27.4675C14.9903 27.1265 15.1818 26.664 15.1818 26.1818V20.7273H20.6364V22.5455C20.6364 23.0277 20.8279 23.4901 21.1689 23.8311C21.5099 24.1721 21.9723 24.3636 22.4545 24.3636H27C27.4822 24.3636 27.9447 24.1721 28.2856 23.8311C28.6266 23.4901 28.8182 23.0277 28.8182 22.5455V8.90909C28.8182 8.66799 28.7224 8.43675 28.5519 8.26627C28.3814 8.09578 28.1502 8 27.9091 8ZM13.3636 26.1818H8.81818V17.0909H13.3636V26.1818ZM13.3636 15.2727H8.81818V9.81818H13.3636V15.2727ZM20.6364 18.9091H15.1818V9.81818H20.6364V18.9091ZM27 22.5455H22.4545V17.0909H27V22.5455ZM27 15.2727H22.4545V9.81818H27V15.2727Z" fill="#2A2A26"/>
</g>
</svg>
