<svg width="35" height="35" viewBox="0 0 35 35" fill="none" xmlns="http://www.w3.org/2000/svg">
<path d="M23.8636 7.95454V26.25C23.8636 29.7659 21.0159 32.6136 17.5 32.6136C13.9841 32.6136 11.1364 29.7659 11.1364 26.25L11.1364 6.36364C11.1364 5.3088 11.5554 4.29716 12.3013 3.55128C13.0472 2.8054 14.0588 2.38636 15.1136 2.38636C16.1685 2.38636 17.1801 2.8054 17.926 3.55128C18.6719 4.29716 19.0909 5.3088 19.0909 6.36364V23.0682C19.0909 23.9432 18.375 24.6591 17.5 24.6591C16.625 24.6591 15.9091 23.9432 15.9091 23.0682L15.9091 7.95454H13.5227L13.5227 23.0682C13.5227 24.123 13.9418 25.1347 14.6876 25.8805C15.4335 26.6264 16.4452 27.0455 17.5 27.0455C18.5548 27.0455 19.5665 26.6264 20.3124 25.8805C21.0582 25.1347 21.4773 24.123 21.4773 23.0682V6.36364C21.4773 2.84772 18.6295 0 15.1136 0C11.5977 0 8.75 2.84772 8.75 6.36364L8.75 26.25C8.75 31.0864 12.6636 35 17.5 35C22.3364 35 26.25 31.0864 26.25 26.25V7.95454H23.8636Z" fill="#AFAFAF"/>
</svg>
