<svg width="20" height="20" viewBox="0 0 20 20" fill="none" xmlns="http://www.w3.org/2000/svg">
<path d="M2 18.4C1.45 18.4 0.979333 18.2044 0.588 17.813C0.196667 17.4217 0.000666667 16.9507 0 16.4V4.40002C0 3.85002 0.196 3.37936 0.588 2.98802C0.98 2.59669 1.45067 2.40069 2 2.40002H18C18.55 2.40002 19.021 2.59602 19.413 2.98802C19.805 3.38002 20.0007 3.85069 20 4.40002V16.4C20 16.95 19.8043 17.421 19.413 17.813C19.0217 18.205 18.5507 18.4007 18 18.4H2ZM10 11.4L18 6.40002V4.40002L10 9.40002L2 4.40002V6.40002L10 11.4Z" fill="#FF7F29"/>
</svg>
