<svg width="20" height="20" viewBox="0 0 20 20" fill="none" xmlns="http://www.w3.org/2000/svg">
<path d="M13.5 12H12.71L12.43 11.73C13.4439 10.554 14.0011 9.0527 14 7.5C14 6.21442 13.6188 4.95772 12.9046 3.8888C12.1903 2.81988 11.1752 1.98676 9.98744 1.49479C8.79973 1.00282 7.49279 0.874095 6.23192 1.1249C4.97104 1.3757 3.81285 1.99477 2.90381 2.90381C1.99477 3.81285 1.3757 4.97104 1.1249 6.23192C0.874095 7.49279 1.00282 8.79973 1.49479 9.98744C1.98676 11.1752 2.81988 12.1903 3.8888 12.9046C4.95772 13.6188 6.21442 14 7.5 14C9.11 14 10.59 13.41 11.73 12.43L12 12.71V13.5L17 18.49L18.49 17L13.5 12ZM7.5 12C5.01 12 3 9.99 3 7.5C3 5.01 5.01 3 7.5 3C9.99 3 12 5.01 12 7.5C12 9.99 9.99 12 7.5 12Z" fill="#2A2A26"/>
</svg>
